<svg width="9" height="25" viewBox="0 0 152 427" xmlns="http://www.w3.org/2000/svg">
            <path d="M3.81409 407.709C3.81409 407.709 3.81409 407.709 3.81409 407.709L3.81409 19.5686C3.81409 19.0194 3.95767 18.4919 4.30452 18.0662C7.01398 14.7403 22.0491 0.029855 76.0287 0.029855C130.008 0.029855 145.043 14.7403 147.753 18.0662C148.1 18.4919 148.243 19.0194 148.243 19.5685L148.243 407.709C148.243 407.709 148.243 407.709 148.243 407.709C148.243 407.709 148.243 426.671 76.0287 426.671C3.81409 426.671 3.81409 407.709 3.81409 407.709Z" fill="#ffde16"/>
            <path d="M12.4857 417.298C11.5515 417.089 10.7232 416.552 10.1513 415.784L3.81396 407.277L3.81396 394.349H25.4853V420.206L12.4857 417.298Z" fill="#C4C4C4"/>
            <path d="M139.569 417.3C140.504 417.091 141.332 416.554 141.904 415.786L148.241 407.28V394.351H126.57V420.208L139.569 417.3Z" fill="#C4C4C4"/>
            <path d="M25.4762 420.207V413.743C25.4762 413.743 25.4762 420.207 76.0264 420.207C126.577 420.207 126.577 413.743 126.577 413.743V420.207C126.577 420.207 126.577 426.671 76.0264 426.671C25.4762 426.671 25.4762 420.207 25.4762 420.207Z" fill="#C4C4C4"/>
            <path d="M34.4527 397.79C33.449 397.674 32.6986 396.823 32.6986 395.813V393.378C32.6986 392.177 33.736 391.244 34.9293 391.381C41.6365 392.151 62.0201 394.35 76.0274 394.35C90.0346 394.35 110.418 392.151 117.125 391.381C118.319 391.244 119.356 392.177 119.356 393.378V395.813C119.356 396.823 118.606 397.674 117.602 397.79C111.44 398.504 90.3845 400.815 76.0274 400.815C61.6703 400.815 40.6143 398.504 34.4527 397.79Z" fill="white"/>
            <path d="M23.2114 65.4032C25.054 71.1147 26.8952 80.6278 28.2752 88.7074C28.9655 92.7484 29.5406 96.4328 29.9433 99.1068C30.1446 100.444 30.3027 101.528 30.4106 102.279C30.4645 102.654 30.5059 102.945 30.5337 103.143L30.5624 103.348L30.8177 103.317C31.0493 103.289 31.3911 103.248 31.8323 103.196C32.7147 103.092 33.9946 102.944 35.5845 102.765C38.7643 102.409 43.1842 101.934 48.1452 101.458C58.0658 100.508 70.1538 99.5565 78.812 99.5565C87.4707 99.5565 98.5156 100.508 107.393 101.458C111.833 101.934 115.731 102.409 118.52 102.766C119.914 102.944 121.031 103.092 121.8 103.196C122.184 103.248 122.481 103.289 122.682 103.317L122.889 103.346L122.917 103.143C122.945 102.945 122.986 102.654 123.04 102.279C123.148 101.528 123.306 100.444 123.508 99.1069C123.91 96.4328 124.485 92.7484 125.175 88.7074C126.555 80.6278 128.396 71.1147 130.239 65.4032C131.594 61.2013 130.478 57.4527 127.68 54.1833C124.878 50.9097 120.392 48.1201 115.022 45.8559C104.284 41.328 90.0487 38.9164 78.812 38.9163C67.5749 38.9163 52.2951 41.328 40.5118 45.857C34.6193 48.1218 29.6108 50.9126 26.418 54.1881C23.2287 57.46 21.8576 61.2069 23.2114 65.4032Z" fill="white" stroke="#E0E0E0" stroke-width="0.2"/>
            <path d="M12.5118 142.243C11.6607 142.243 10.979 141.544 11.0063 140.694C11.1529 136.13 11.5148 122.478 10.9529 113.154C10.3953 103.901 8.42314 90.5312 7.69661 85.8018C7.55641 84.8892 8.26216 84.0647 9.18551 84.0647H20.2767C21.0049 84.0647 21.626 84.5794 21.7478 85.2972C22.4092 89.1923 24.4279 101.478 25.0635 109.922C25.8587 120.486 25.3196 136.074 25.1253 140.821C25.0926 141.62 24.4342 142.243 23.6338 142.243H12.5118Z" fill="white"/>
            <line y1="-0.25" x2="15.8278" y2="-0.25" transform="matrix(0.912797 -0.408413 0.48777 0.872972 11.0364 109.921)" stroke="#E0E0E0" stroke-width="0.5"/>
            <path d="M139.546 142.243C140.397 142.243 141.079 141.544 141.051 140.694C140.905 136.13 140.543 122.478 141.105 113.154C141.662 103.901 143.634 90.5312 144.361 85.8018C144.501 84.8892 143.795 84.0647 142.872 84.0647H131.781C131.053 84.0647 130.432 84.5794 130.31 85.2972C129.648 89.1923 127.63 101.478 126.994 109.922C126.199 120.486 126.738 136.074 126.932 140.821C126.965 141.62 127.623 142.243 128.424 142.243H139.546Z" fill="white"/>
            <line y1="-0.25" x2="15.8278" y2="-0.25" transform="matrix(-0.912797 -0.408413 -0.48777 0.872972 141.021 109.921)" stroke="#E0E0E0" stroke-width="0.5"/>
            <ellipse rx="13.7556" ry="9.4858" transform="matrix(-0.74509 0.666964 -0.74509 -0.666964 17.3169 20.2612)" fill="white"/>
            <path d="M124.151 10.788C120.244 14.285 121.662 21.2236 127.317 26.2859C132.973 31.3483 140.724 32.6173 144.631 29.1204C148.537 25.6234 147.12 18.6848 141.464 13.6225C135.809 8.56012 128.058 7.2911 124.151 10.788Z" fill="white"/>
            <path d="M32.6986 17.2676V12.9581C32.6986 12.9581 64.6589 9.72594 76.0274 9.72594C87.3958 9.72594 118.808 12.9581 118.808 12.9581V17.2676C118.808 17.2676 87.3958 14.0354 76.0274 14.0354C64.6589 14.0354 32.6986 17.2676 32.6986 17.2676Z" fill="#BDBDBD"/>
        </svg>